<svg width="26" height="26" viewBox="0 0 26 26" fill="none" xmlns="http://www.w3.org/2000/svg">
<circle cx="13" cy="13" r="13" fill="#FFF3F3"/>
<path d="M18.65 8.06692H17.0257C17.004 8.05927 16.9814 8.05429 16.9585 8.05201H15.2291V6.59377C15.2292 6.48418 15.1869 6.37897 15.1116 6.3007C15.0362 6.22244 14.9337 6.17729 14.826 6.175H10.7359C10.6267 6.175 10.5219 6.21906 10.4447 6.29762C10.3674 6.37618 10.324 6.48268 10.324 6.59377V8.052H8.60338C8.58049 8.05429 8.55789 8.05926 8.53618 8.06692H6.91189C6.76468 8.06692 6.62871 8.14667 6.55517 8.27625C6.48161 8.40582 6.48161 8.56542 6.55517 8.695C6.62872 8.82458 6.76468 8.90443 6.91189 8.90443H8.23522L9.30451 19.0175C9.31596 19.1204 9.36428 19.2154 9.44028 19.2845C9.51618 19.3535 9.61448 19.3916 9.7164 19.3917H15.8513C15.9521 19.3902 16.0489 19.3513 16.1238 19.2825C16.1985 19.2136 16.2459 19.1194 16.2573 19.0175L17.3265 8.91919H18.6499C18.7971 8.91919 18.9331 8.83944 19.0066 8.70986C19.0802 8.58029 19.0802 8.42059 19.0066 8.29111C18.9331 8.16154 18.7971 8.08168 18.6499 8.08168L18.65 8.06692ZM11.1567 7.01252H14.4052V8.052H11.1567V7.01252ZM15.4774 18.5481H10.0845L9.06202 8.91929H16.4997L15.4774 18.5481Z" fill="#E41D1D"/>
<path d="M12.781 17.5682C12.8903 17.5682 12.995 17.524 13.0723 17.4455C13.1496 17.367 13.1929 17.2605 13.1929 17.1494V10.3184C13.1929 10.1687 13.1145 10.0305 12.987 9.95568C12.8596 9.8808 12.7025 9.8808 12.575 9.95568C12.4476 10.0305 12.3691 10.1687 12.3691 10.3184V17.1494C12.3691 17.2605 12.4125 17.367 12.4897 17.4455C12.567 17.524 12.6718 17.5682 12.781 17.5682H12.781Z" fill="#E41D1D"/>
<path d="M11.1596 17.5651H11.1772C11.2859 17.5605 11.3884 17.5123 11.4624 17.4311C11.5362 17.3498 11.5756 17.2421 11.5715 17.1315L11.3232 10.3005L11.3233 10.3004C11.321 10.1885 11.274 10.0823 11.1929 10.0065C11.1117 9.93085 11.0037 9.89216 10.8938 9.89942C10.785 9.9041 10.6825 9.95233 10.6087 10.0336C10.5347 10.1148 10.4955 10.2225 10.4994 10.3331L10.7478 17.1642C10.7529 17.2718 10.7985 17.3735 10.8752 17.4481C10.9518 17.5225 11.0536 17.5645 11.1596 17.5651L11.1596 17.5651Z" fill="#E41D1D"/>
<path d="M14.3875 17.5651H14.4021C14.5106 17.5676 14.6158 17.5266 14.695 17.4511C14.7741 17.3756 14.8211 17.2714 14.8257 17.1612L15.074 10.3301H15.0739C15.0779 10.2195 15.0386 10.1118 14.9648 10.0306C14.8908 9.94933 14.7883 9.9011 14.6795 9.89643C14.5683 9.88479 14.4574 9.92129 14.374 9.99706C14.2905 10.0727 14.2424 10.1807 14.2413 10.2945L13.9901 17.1256H13.9902C13.9846 17.2376 14.0235 17.3473 14.0982 17.4299C14.1729 17.5126 14.2771 17.5613 14.3875 17.5651L14.3875 17.5651Z" fill="#E41D1D"/>
</svg>
