<svg width="24" height="24" viewBox="0 0 24 24" fill="none" xmlns="http://www.w3.org/2000/svg">
<path d="M21.2308 4H2.76923C2.34872 4 2 3.54667 2 3C2 2.45333 2.34872 2 2.76923 2H21.2308C21.6513 2 22 2.45333 22 3C22 3.54667 21.6513 4 21.2308 4Z" fill="#171717"/>
<path d="M21.2308 4H2.76923C2.34872 4 2 3.54667 2 3C2 2.45333 2.34872 2 2.76923 2H21.2308C21.6513 2 22 2.45333 22 3C22 3.54667 21.6513 4 21.2308 4Z" stroke="black"/>
<path d="M21.2308 9H2.76923C2.34872 9 2 8.54667 2 8C2 7.45333 2.34872 7 2.76923 7H21.2308C21.6513 7 22 7.45333 22 8C22 8.54667 21.6513 9 21.2308 9Z" fill="#171717"/>
<path d="M21.2308 9H2.76923C2.34872 9 2 8.54667 2 8C2 7.45333 2.34872 7 2.76923 7H21.2308C21.6513 7 22 7.45333 22 8C22 8.54667 21.6513 9 21.2308 9Z" stroke="black"/>
<path d="M21.2308 14H2.76923C2.34872 14 2 13.5467 2 13C2 12.4533 2.34872 12 2.76923 12H21.2308C21.6513 12 22 12.4533 22 13C22 13.5467 21.6513 14 21.2308 14Z" fill="#171717"/>
<path d="M21.2308 14H2.76923C2.34872 14 2 13.5467 2 13C2 12.4533 2.34872 12 2.76923 12H21.2308C21.6513 12 22 12.4533 22 13C22 13.5467 21.6513 14 21.2308 14Z" stroke="black"/>
<path d="M21.2308 19H2.76923C2.34872 19 2 18.5467 2 18C2 17.4533 2.34872 17 2.76923 17H21.2308C21.6513 17 22 17.4533 22 18C22 18.5467 21.6513 19 21.2308 19Z" fill="#171717"/>
<path d="M21.2308 19H2.76923C2.34872 19 2 18.5467 2 18C2 17.4533 2.34872 17 2.76923 17H21.2308C21.6513 17 22 17.4533 22 18C22 18.5467 21.6513 19 21.2308 19Z" stroke="black"/>
</svg>
