<svg width="22" height="22" viewBox="0 0 22 22" fill="none" xmlns="http://www.w3.org/2000/svg">
<path d="M4.58325 9.16671H6.41659C8.24992 9.16671 9.16658 8.25004 9.16658 6.41671V4.58337C9.16658 2.75004 8.24992 1.83337 6.41659 1.83337H4.58325C2.74992 1.83337 1.83325 2.75004 1.83325 4.58337V6.41671C1.83325 8.25004 2.74992 9.16671 4.58325 9.16671Z" stroke="#171717" stroke-width="1.375" stroke-miterlimit="10" stroke-linecap="round" stroke-linejoin="round"/>
<path d="M15.5833 9.16671H17.4166C19.2499 9.16671 20.1666 8.25004 20.1666 6.41671V4.58337C20.1666 2.75004 19.2499 1.83337 17.4166 1.83337H15.5833C13.7499 1.83337 12.8333 2.75004 12.8333 4.58337V6.41671C12.8333 8.25004 13.7499 9.16671 15.5833 9.16671Z" stroke="#171717" stroke-width="1.375" stroke-miterlimit="10" stroke-linecap="round" stroke-linejoin="round"/>
<path d="M15.5833 20.1667H17.4166C19.2499 20.1667 20.1666 19.25 20.1666 17.4167V15.5834C20.1666 13.75 19.2499 12.8334 17.4166 12.8334H15.5833C13.7499 12.8334 12.8333 13.75 12.8333 15.5834V17.4167C12.8333 19.25 13.7499 20.1667 15.5833 20.1667Z" stroke="#171717" stroke-width="1.375" stroke-miterlimit="10" stroke-linecap="round" stroke-linejoin="round"/>
<path d="M4.58325 20.1667H6.41659C8.24992 20.1667 9.16658 19.25 9.16658 17.4167V15.5834C9.16658 13.75 8.24992 12.8334 6.41659 12.8334H4.58325C2.74992 12.8334 1.83325 13.75 1.83325 15.5834V17.4167C1.83325 19.25 2.74992 20.1667 4.58325 20.1667Z" stroke="#171717" stroke-width="1.375" stroke-miterlimit="10" stroke-linecap="round" stroke-linejoin="round"/>
</svg>
