<svg width="40" height="40" viewBox="0 0 40 40" fill="none" xmlns="http://www.w3.org/2000/svg">
<g clip-path="url(#clip0_31_422)">
<path d="M20 13.3333C21.8333 13.3333 23.3333 11.8333 23.3333 10C23.3333 8.16667 21.8333 6.66667 20 6.66667C18.1667 6.66667 16.6667 8.16667 16.6667 10C16.6667 11.8333 18.1667 13.3333 20 13.3333ZM20 16.6667C18.1667 16.6667 16.6667 18.1667 16.6667 20C16.6667 21.8333 18.1667 23.3333 20 23.3333C21.8333 23.3333 23.3333 21.8333 23.3333 20C23.3333 18.1667 21.8333 16.6667 20 16.6667ZM20 26.6667C18.1667 26.6667 16.6667 28.1667 16.6667 30C16.6667 31.8333 18.1667 33.3333 20 33.3333C21.8333 33.3333 23.3333 31.8333 23.3333 30C23.3333 28.1667 21.8333 26.6667 20 26.6667Z" fill="#323232"/>
</g>
<defs>
<clipPath id="clip0_31_422">
<rect width="40" height="40" fill="white"/>
</clipPath>
</defs>
</svg>
