<svg width="84" height="76" viewBox="0 0 84 76" fill="none" xmlns="http://www.w3.org/2000/svg">
<path d="M56.2989 7.21528C50.1387 7.21528 44.9661 11.4421 43.3059 17.1922C43.143 17.7551 43.4528 18.3522 44.0071 18.5226C44.566 18.6945 45.1448 18.3639 45.3067 17.8004C46.7428 12.827 51.2651 9.35731 56.2989 9.35731C56.8794 9.35731 57.3425 8.87336 57.3425 8.28629C57.3425 7.69921 56.8794 7.21528 56.2989 7.21528Z" fill="black" stroke="#F9FFF9" stroke-width="0.3"/>
<path d="M68.8089 53.4157H63.4473C62.9539 53.4157 62.5536 53.0033 62.5536 52.4947C62.5536 51.9862 62.9539 51.5737 63.4473 51.5737H68.8089C76.1997 51.5737 82.2131 45.376 82.2131 37.7587C82.2131 30.1414 76.1997 23.9436 68.8089 23.9436H68.6799C68.4208 23.9436 68.1744 23.8278 68.0046 23.6259C67.8349 23.4239 67.7582 23.1562 67.7953 22.8917C67.8751 22.3181 67.9153 21.7418 67.9153 21.1806C67.9153 14.579 62.7035 9.20752 56.2982 9.20752C53.8063 9.20752 51.4299 10.0101 49.4256 11.5291C48.9852 11.8626 48.3597 11.7146 48.105 11.2153C42.4287 0.0751414 27.6027 -1.42087 19.9161 8.27009C16.6781 12.3527 15.4059 17.6636 16.4253 22.8398C16.5377 23.4115 16.1132 23.9443 15.5496 23.9443H15.1915C7.80075 23.9443 1.78731 30.1421 1.78731 37.7594C1.78731 45.3767 7.80075 51.5744 15.1915 51.5744H20.5531C21.0465 51.5744 21.4468 51.9869 21.4468 52.4954C21.4468 53.004 21.0465 53.4164 20.5531 53.4164H15.1915C6.8151 53.4164 0 46.3925 0 37.7593C0 29.3683 6.4378 22.4976 14.49 22.1187C13.7336 16.7485 15.18 11.3317 18.5323 7.10437C26.7618 -3.27202 42.5331 -2.10897 49.2 9.46147C51.3269 8.0872 53.7606 7.36625 56.2979 7.36625C64.0583 7.36625 70.2077 14.1738 69.6696 22.1273C77.6477 22.5884 84 29.4229 84 37.7586C84 46.3925 77.1849 53.4158 68.8085 53.4158L68.8089 53.4157Z" fill="black"/>
<path d="M19.3898 51.9746C19.3898 64.7495 29.4748 75.15 41.8804 75.15C54.2862 75.15 64.371 64.7493 64.371 51.9746C64.371 39.1998 54.2862 28.7993 41.8804 28.7993C29.4746 28.7993 19.3898 39.2 19.3898 51.9746ZM21.4774 51.9746C21.4774 40.3731 30.6346 30.9417 41.8804 30.9417C53.1261 30.9417 62.2834 40.3729 62.2834 51.9746C62.2834 63.5762 53.1261 73.0076 41.8804 73.0076C30.6348 73.0076 21.4774 63.5763 21.4774 51.9746Z" fill="black" stroke="#F9FFF9" stroke-width="0.3"/>
<path d="M41.4845 61.2438C41.4845 61.6946 41.8405 62.0681 42.2887 62.0681C42.737 62.0681 43.093 61.6952 43.093 61.2438V43.7124C43.093 43.2615 42.7371 42.8881 42.2887 42.8881C41.8404 42.8881 41.4845 43.2615 41.4845 43.7124V61.2438Z" fill="black" stroke="black" stroke-width="0.3"/>
<path d="M42.2888 44.8832L46.9523 49.6896C47.1087 49.8509 47.3156 49.9326 47.5225 49.9327L42.2888 44.8832ZM42.2888 44.8832L37.6254 49.6895C37.3112 50.0139 36.7992 50.0138 36.4847 49.6896C36.1726 49.368 36.1726 48.8487 36.4847 48.5271L41.7184 43.133L42.2888 44.8832ZM47.5226 49.9327C47.7292 49.9326 47.9363 49.8515 48.093 49.6894L47.5226 49.9327Z" fill="black" stroke="black" stroke-width="0.3"/>
</svg>
