<svg width="29" height="29" viewBox="0 0 29 29" fill="none" xmlns="http://www.w3.org/2000/svg">
<path d="M9.85998 8.0354H19.1279C19.9012 8.0354 20.5296 8.66373 20.5296 9.43707V10.9837C20.5296 11.5517 20.1791 12.2525 19.8287 12.6029L16.8079 15.2733C16.385 15.6237 16.1071 16.3246 16.1071 16.8925V19.9133C16.1071 20.3362 15.8291 20.8921 15.4787 21.1096L14.5 21.7258C13.5816 22.2937 12.325 21.6533 12.325 20.5296V16.8079C12.325 16.3125 12.0471 15.6842 11.7571 15.3337L9.08665 12.5183C8.73623 12.18 8.45831 11.5396 8.45831 11.1167V9.50957C8.45831 8.66373 9.08665 8.0354 9.85998 8.0354Z" stroke="#171717" stroke-width="2.58929" stroke-miterlimit="10" stroke-linecap="round" stroke-linejoin="round"/>
<path d="M2.41669 15.6117V18.125C2.41669 24.1667 4.83335 26.5834 10.875 26.5834H18.125C24.1667 26.5834 26.5834 24.1667 26.5834 18.125V10.875C26.5834 4.83335 24.1667 2.41669 18.125 2.41669H10.875C4.83335 2.41669 2.41669 4.83335 2.41669 10.875" stroke="#171717" stroke-width="2.58929" stroke-linecap="round" stroke-linejoin="round"/>
</svg>
