<svg width="28" height="28" viewBox="0 0 28 28" fill="none" xmlns="http://www.w3.org/2000/svg">
<path d="M5.83331 14V10.1667C5.83331 8.12392 5.83331 7.10255 6.46791 6.46795C7.10252 5.83334 8.12389 5.83334 10.1666 5.83334H11.0384C11.924 5.83334 12.3668 5.83334 12.765 5.99827C13.1632 6.1632 13.4763 6.47632 14.1025 7.10255L15.0641 8.06414C15.6903 8.69037 16.0035 9.00349 16.4016 9.16842C16.7998 9.33334 17.2426 9.33334 18.1282 9.33334H20.1666C22.2094 9.33334 23.2308 9.33334 23.8654 9.96795C24.5 10.6025 24.5 11.6239 24.5 13.6667V17.8333C24.5 19.8761 24.5 20.8975 23.8654 21.5321C23.2308 22.1667 22.2094 22.1667 20.1666 22.1667H18.6666" stroke="#121212" stroke-width="2.16667"/>
<path d="M4.66669 19.25H15.1667M15.1667 19.25L11.0834 15.1667M15.1667 19.25L11.0834 23.3333" stroke="#121212" stroke-width="2.16667"/>
</svg>
