<svg width="29" height="28" viewBox="0 0 29 28" fill="none" xmlns="http://www.w3.org/2000/svg">
<path d="M15.0249 10.5C15.0249 12.5292 13.3884 14.1666 11.3788 14.1666C9.3693 14.1666 7.73273 12.5292 7.73273 10.5C7.73273 8.47075 9.3693 6.83329 11.3788 6.83329C13.3884 6.83329 15.0249 8.47075 15.0249 10.5Z" stroke="#33363F" stroke-width="2" stroke-linecap="round"/>
<path d="M15.0357 10.415C15.366 9.84047 15.9091 9.42254 16.5445 9.25152C17.1798 9.08054 17.8569 9.16993 18.4271 9.5006C18.9975 9.83138 19.415 10.377 19.5861 11.0185C19.7573 11.6601 19.6676 12.3436 19.3372 12.9183C19.007 13.4928 18.4639 13.9107 17.8285 14.0817C17.1931 14.2527 16.5161 14.1633 15.9459 13.8326C15.3755 13.5019 14.958 12.9563 14.7868 12.3147C14.6157 11.6731 14.7054 10.9896 15.0357 10.415L15.0357 10.415Z" stroke="#33363F" stroke-width="2"/>
<path d="M17.049 22.1666L16.0685 22.3632L16.2296 23.1666H17.049V22.1666ZM21.5078 20.8885L22.4507 20.5555L21.5078 20.8885ZM14.6089 18.3289L14.0023 17.5339L12.8527 18.4109L14.0791 19.177L14.6089 18.3289ZM20.5118 21.1666H17.049V23.1666H20.5118V21.1666ZM20.5648 21.2214C20.566 21.2248 20.5647 21.2223 20.5641 21.2146C20.5635 21.207 20.5638 21.1974 20.5657 21.1871C20.5696 21.1656 20.578 21.1529 20.5812 21.1489C20.586 21.1428 20.5686 21.1666 20.5118 21.1666V23.1666C21.7579 23.1666 22.9603 21.9989 22.4507 20.5555L20.5648 21.2214ZM17.1865 18.5C19.1964 18.5 20.1209 19.9642 20.5648 21.2214L22.4507 20.5555C21.9189 19.0494 20.5086 16.5 17.1865 16.5V18.5ZM15.2154 19.124C15.6897 18.7622 16.3178 18.5 17.1865 18.5V16.5C15.8717 16.5 14.8189 16.9109 14.0023 17.5339L15.2154 19.124ZM14.0791 19.177C15.3421 19.966 15.8623 21.3348 16.0685 22.3632L18.0295 21.97C17.7802 20.7267 17.0903 18.6999 15.1387 17.4808L14.0791 19.177Z" fill="#33363F"/>
<path d="M11.3789 17.5C15.5272 17.5 16.7124 20.4762 17.0511 22.1769C17.1769 22.8088 16.6642 23.3333 16.0198 23.3333H6.7379C6.09356 23.3333 5.58085 22.8088 5.70667 22.1769C6.04528 20.4762 7.23049 17.5 11.3789 17.5Z" stroke="#33363F" stroke-width="2" stroke-linecap="round"/>
<path d="M23.0918 3.5V8.16667" stroke="#33363F" stroke-width="2" stroke-linecap="round"/>
<path d="M25.4251 5.83334L20.7584 5.83334" stroke="#33363F" stroke-width="2" stroke-linecap="round"/>
</svg>
