<svg width="24" height="24" viewBox="0 0 24 24" fill="none" xmlns="http://www.w3.org/2000/svg">
<circle cx="12" cy="7.99997" r="3.11111" stroke="#33363F" stroke-width="1.77778" stroke-linecap="round"/>
<path d="M15.1717 7.94444C15.4517 7.45956 15.9128 7.10574 16.4536 6.96082C16.9944 6.81591 17.5707 6.89177 18.0556 7.17172C18.5404 7.45167 18.8943 7.91278 19.0392 8.4536C19.1841 8.99443 19.1082 9.57067 18.8283 10.0556C18.5483 10.5404 18.0872 10.8943 17.5464 11.0392C17.0056 11.1841 16.4293 11.1082 15.9444 10.8283C15.4596 10.5483 15.1057 10.0872 14.9608 9.5464C14.8159 9.00557 14.8918 8.42933 15.1717 7.94444L15.1717 7.94444Z" stroke="#33363F" stroke-width="1.77778"/>
<path d="M5.17172 7.94444C5.45167 7.45956 5.91278 7.10574 6.4536 6.96082C6.99443 6.81591 7.57067 6.89177 8.05556 7.17172C8.54044 7.45167 8.89426 7.91278 9.03918 8.4536C9.18409 8.99443 9.10823 9.57067 8.82828 10.0556C8.54833 10.5404 8.08722 10.8943 7.5464 11.0392C7.00557 11.1841 6.42933 11.1082 5.94444 10.8283C5.45956 10.5483 5.10574 10.0872 4.96082 9.5464C4.81591 9.00557 4.89177 8.42933 5.17172 7.94444L5.17172 7.94444Z" stroke="#33363F" stroke-width="1.77778"/>
<path d="M16.8815 18.0001L16.0101 18.1756L16.1538 18.889H16.8815V18.0001ZM20.7201 16.9042L19.8824 17.2014L20.7201 16.9042ZM14.7807 14.7106L14.2431 14.0027L13.215 14.7836L14.3113 15.4654L14.7807 14.7106ZM19.8671 17.1112H16.8815V18.889H19.8671V17.1112ZM19.8824 17.2014C19.8825 17.2018 19.8808 17.1969 19.88 17.1875C19.8792 17.1781 19.8796 17.167 19.8818 17.1553C19.8861 17.1313 19.8957 17.1154 19.9017 17.108C19.9122 17.0949 19.9066 17.1112 19.8671 17.1112V18.889C20.9526 18.889 22.0057 17.8697 21.5579 16.6071L19.8824 17.2014ZM16.9999 14.889C18.7141 14.889 19.5023 16.1299 19.8824 17.2014L21.5579 16.6071C21.0978 15.3101 19.8758 13.1112 16.9999 13.1112V14.889ZM15.3184 15.4185C15.7219 15.112 16.2572 14.889 16.9999 14.889V13.1112C15.8627 13.1112 14.9509 13.4651 14.2431 14.0027L15.3184 15.4185ZM14.3113 15.4654C15.3887 16.1355 15.8335 17.2985 16.0101 18.1756L17.7529 17.8246C17.5374 16.7544 16.9404 15.007 15.2502 13.9558L14.3113 15.4654Z" fill="#33363F"/>
<path d="M9.2192 14.7106L9.68864 15.4654L10.7849 14.7836L9.75685 14.0027L9.2192 14.7106ZM3.2798 16.9042L4.11755 17.2014L3.2798 16.9042ZM7.11839 18.0001V18.889H7.84611L7.98978 18.1756L7.11839 18.0001ZM7.00001 14.889C7.7427 14.889 8.27806 15.112 8.68154 15.4184L9.75685 14.0027C9.04906 13.4651 8.13725 13.1112 7.00001 13.1112V14.889ZM4.11755 17.2014C4.4976 16.1299 5.28582 14.889 7.00001 14.889V13.1112C4.12411 13.1112 2.9021 15.31 2.44205 16.6071L4.11755 17.2014ZM4.13278 17.1112C4.09334 17.1112 4.08773 17.0949 4.09824 17.108C4.1042 17.1154 4.11379 17.1313 4.11817 17.1553C4.12029 17.167 4.12068 17.1781 4.1199 17.1875C4.11912 17.1969 4.11741 17.2018 4.11755 17.2014L2.44205 16.6071C1.9942 17.8697 3.04727 18.889 4.13278 18.889V17.1112ZM7.11839 17.1112H4.13278V18.889H7.11839V17.1112ZM7.98978 18.1756C8.16643 17.2985 8.6112 16.1355 9.68864 15.4654L8.74975 13.9558C7.05958 15.007 6.46253 16.7544 6.247 17.8246L7.98978 18.1756Z" fill="#33363F"/>
<path d="M12 14C15.5715 14 16.5919 16.5512 16.8834 18.0089C16.9917 18.5505 16.5523 19 16 19H8C7.44772 19 7.00829 18.5505 7.11659 18.0089C7.4081 16.5512 8.42846 14 12 14Z" stroke="#33363F" stroke-width="1.77778" stroke-linecap="round"/>
</svg>
