<svg width="28" height="28" viewBox="0 0 28 28" fill="none" xmlns="http://www.w3.org/2000/svg">
<path d="M17.5 14C17.5 12.0633 15.9367 10.5 14 10.5C12.0633 10.5 10.5 12.0633 10.5 14C10.5 15.9367 12.0633 17.5 14 17.5C14.4783 17.5 14.945 17.4067 15.365 17.22" stroke="#171717" stroke-width="2" stroke-miterlimit="10" stroke-linecap="round" stroke-linejoin="round"/>
<path d="M8.02667 24.01L9.29834 24.745C10.22 25.2933 11.41 24.9667 11.9583 24.045L12.0867 23.8233C13.1367 21.9917 14.8633 21.9917 15.925 23.8233L16.0533 24.045C16.6017 24.9667 17.7917 25.2933 18.7133 24.745L20.7317 23.59C21.7933 22.9833 22.155 21.6183 21.5483 20.5683C20.4867 18.7367 21.35 17.2433 23.4617 17.2433C24.675 17.2433 25.6783 16.2517 25.6783 15.0267V12.9733C25.6783 11.76 24.6867 10.7567 23.4617 10.7567C22.2833 10.7567 21.49 10.29 21.21 9.55499C20.9883 8.98332 21.0817 8.23666 21.5483 7.43166C22.155 6.36999 21.7933 5.01665 20.7317 4.40999L19.7867 3.87332" stroke="#171717" stroke-width="2" stroke-miterlimit="10" stroke-linecap="round" stroke-linejoin="round"/>
<path d="M15.9133 4.17666C14.8633 6.00833 13.1366 6.00833 12.075 4.17666L11.9466 3.955C11.41 3.03333 10.22 2.70666 9.29831 3.255L7.27998 4.41C6.21831 5.01666 5.85665 6.38166 6.46331 7.44333C7.52498 9.26333 6.66165 10.7567 4.54998 10.7567C3.33665 10.7567 2.33331 11.7483 2.33331 12.9733V15.0267C2.33331 16.24 3.32498 17.2433 4.54998 17.2433C6.66165 17.2433 7.52498 18.7367 6.46331 20.5683" stroke="#171717" stroke-width="2" stroke-miterlimit="10" stroke-linecap="round" stroke-linejoin="round"/>
</svg>
