<svg width="20" height="20" viewBox="0 0 20 20" fill="none" xmlns="http://www.w3.org/2000/svg">
<path d="M10 20C7.34792 20 4.80414 18.9464 2.92894 17.0711C1.05363 15.1956 0 12.6521 0 10C0 7.34792 1.05363 4.80414 2.92894 2.92894C4.80441 1.05363 7.34792 0 10 0C12.6521 0 15.1959 1.05363 17.0711 2.92894C18.9464 4.80442 20 7.34792 20 10C19.9968 12.6512 18.9423 15.1931 17.0676 17.0676C15.1929 18.9422 12.6509 19.9968 10 20ZM13.8564 7.42802V7.42787C14.0317 7.25848 14.1317 7.02579 14.1338 6.78197C14.1359 6.53816 14.0401 6.30364 13.8676 6.1312C13.6952 5.95876 13.4607 5.86289 13.2169 5.86502C12.9731 5.86715 12.7404 5.96714 12.571 6.14247L10 8.71437L7.42904 6.14247C7.19816 5.9195 6.86683 5.83474 6.55712 5.91965C6.24757 6.00458 6.00575 6.24641 5.92081 6.55597C5.83589 6.86568 5.92066 7.197 6.14362 7.42788L8.71459 9.99978L6.14362 12.5717C5.9683 12.7411 5.86831 12.9738 5.86618 13.2176C5.86405 13.4614 5.95992 13.6959 6.13236 13.8684C6.30479 14.0408 6.53931 14.1367 6.78313 14.1345C7.02694 14.1324 7.25962 14.0324 7.42902 13.8571L9.99999 11.2852L12.571 13.8571C12.7404 14.0324 12.973 14.1324 13.2169 14.1345C13.4607 14.1367 13.6952 14.0408 13.8676 13.8684C14.0401 13.6959 14.1359 13.4614 14.1338 13.2176C14.1317 12.9738 14.0317 12.7411 13.8564 12.5717L11.2854 9.99978L13.8564 7.42802Z" fill="#E6E6E6"/>
</svg>
