<svg width="24" height="24" viewBox="0 0 24 24" fill="none" xmlns="http://www.w3.org/2000/svg">
<path d="M18.92 5.54001C20.62 6.29001 20.62 7.53001 18.92 8.28001L13.02 10.9C12.35 11.2 11.25 11.2 10.58 10.9L4.68003 8.28001C2.98003 7.53001 2.98003 6.29001 4.68003 5.54001L10.58 2.92001C11.25 2.62001 12.35 2.62001 13.02 2.92001L14.94 3.77001" stroke="#171717" stroke-width="2" stroke-linecap="round" stroke-linejoin="round"/>
<path d="M3 11C3 11.84 3.63 12.81 4.4 13.15L11.19 16.17C11.71 16.4 12.3 16.4 12.81 16.17L19.6 13.15C20.37 12.81 21 11.84 21 11" stroke="#171717" stroke-width="2" stroke-linecap="round" stroke-linejoin="round"/>
<path d="M3 16C3 16.93 3.55 17.77 4.4 18.15L11.19 21.17C11.71 21.4 12.3 21.4 12.81 21.17L19.6 18.15C20.45 17.77 21 16.93 21 16" stroke="#171717" stroke-width="2" stroke-linecap="round" stroke-linejoin="round"/>
</svg>
