<svg width="24" height="24" viewBox="0 0 24 24" fill="none" xmlns="http://www.w3.org/2000/svg">
<path d="M18.87 18C19.82 17.29 20.6 15.74 20.6 14.56V7.12999C20.6 5.89999 19.66 4.53997 18.51 4.10997L13.52 2.23998C12.69 1.92998 11.33 1.92998 10.5 2.23998L5.51004 4.10997C4.36004 4.53997 3.42004 5.89999 3.42004 7.12999V14.56C3.42004 15.74 4.20002 17.29 5.15002 18L9.45004 21.21C10.86 22.27 13.18 22.27 14.59 21.21L15.33 20.65" stroke="#121212" stroke-width="1.75" stroke-linecap="round" stroke-linejoin="round"/>
<path d="M12.0001 10.92C11.9601 10.92 11.9101 10.92 11.8701 10.92C10.9301 10.89 10.1801 10.11 10.1801 9.16C10.1801 8.19 10.9701 7.39999 11.9401 7.39999C12.9101 7.39999 13.7001 8.19 13.7001 9.16C13.6901 10.12 12.9401 10.89 12.0001 10.92Z" stroke="#121212" stroke-width="1.75" stroke-linecap="round" stroke-linejoin="round"/>
<path d="M10.01 13.72C9.05004 14.36 9.05004 15.41 10.01 16.05C11.1 16.78 12.89 16.78 13.98 16.05C14.94 15.41 14.94 14.36 13.98 13.72C12.9 12.99 11.11 12.99 10.01 13.72Z" stroke="#121212" stroke-width="1.75" stroke-linecap="round" stroke-linejoin="round"/>
</svg>
