<svg width="25" height="24" viewBox="0 0 25 24" fill="none" xmlns="http://www.w3.org/2000/svg">
<path d="M2.01562 13.02V15C2.01562 20 4.01562 22 9.01562 22H15.0156C20.0156 22 22.0156 20 22.0156 15V9C22.0156 4 20.0156 2 15.0156 2H9.01562C4.01562 2 2.01562 4 2.01562 9" stroke="#171717" stroke-width="1.5" stroke-linecap="round" stroke-linejoin="round"/>
<path d="M18.3958 15.27V7.57999C18.3958 6.80999 17.7757 6.25 17.0157 6.31H16.9758C15.6358 6.42 13.6058 7.11001 12.4658 7.82001L12.3558 7.89002C12.1758 8.00002 11.8657 8.00002 11.6757 7.89002L11.5157 7.79001C10.3857 7.08001 8.35575 6.40999 7.01575 6.29999C6.25575 6.23999 5.63574 6.81001 5.63574 7.57001V15.27C5.63574 15.88 6.13573 16.46 6.74573 16.53L6.92572 16.56C8.30572 16.74 10.4458 17.45 11.6658 18.12L11.6957 18.13C11.8657 18.23 12.1457 18.23 12.3057 18.13C13.5257 17.45 15.6757 16.75 17.0657 16.56L17.2758 16.53C17.8958 16.46 18.3958 15.89 18.3958 15.27Z" stroke="#171717" stroke-width="1.5" stroke-linecap="round" stroke-linejoin="round"/>
<path d="M12.0156 8.09998V17.66" stroke="#171717" stroke-width="1.5" stroke-linecap="round" stroke-linejoin="round"/>
</svg>
